<?xml version="1.0" encoding="UTF-8" standalone="no"?>
<!-- Generator: Adobe Illustrator 19.0.0, SVG Export Plug-In . SVG Version: 6.00 Build 0)  -->

<svg
   xmlns:dc="http://purl.org/dc/elements/1.1/"
   xmlns:cc="http://creativecommons.org/ns#"
   xmlns:rdf="http://www.w3.org/1999/02/22-rdf-syntax-ns#"
   xmlns:svg="http://www.w3.org/2000/svg"
   xmlns="http://www.w3.org/2000/svg"
   xmlns:sodipodi="http://sodipodi.sourceforge.net/DTD/sodipodi-0.dtd"
   xmlns:inkscape="http://www.inkscape.org/namespaces/inkscape"
   version="1.1"
   id="USD"
   x="0px"
   y="0px"
   viewBox="-233 363 300 300"
   style="enable-background:new -233 363 300 300;"
   xml:space="preserve"
   sodipodi:docname="sUSD.svg"
   inkscape:version="0.92.4 (unknown)"><metadata
   id="metadata31"><rdf:RDF><cc:Work
       rdf:about=""><dc:format>image/svg+xml</dc:format><dc:type
         rdf:resource="http://purl.org/dc/dcmitype/StillImage" /></cc:Work></rdf:RDF></metadata><defs
   id="defs29" /><sodipodi:namedview
   pagecolor="#ffffff"
   bordercolor="#666666"
   borderopacity="1"
   objecttolerance="10"
   gridtolerance="10"
   guidetolerance="10"
   inkscape:pageopacity="0"
   inkscape:pageshadow="2"
   inkscape:window-width="1668"
   inkscape:window-height="821"
   id="namedview27"
   showgrid="false"
   inkscape:zoom="0.78666667"
   inkscape:cx="-327.33051"
   inkscape:cy="150"
   inkscape:window-x="1389"
   inkscape:window-y="400"
   inkscape:window-maximized="0"
   inkscape:current-layer="XMLID_2_"
   showguides="false" />
<style
   type="text/css"
   id="style2">
	.st0{fill:#3D2096;}
	.st1{fill:#FFFFFF;}
</style>
<g
   id="Main">
	<g
   id="g6">
		<circle
   class="st0"
   cx="-83"
   cy="513"
   r="150"
   id="circle4"
   style="fill:#1e1a31;fill-opacity:1" />
	</g>
	<g
   id="Logo"
   transform="matrix(1.3903193,0,0,1.3903193,51.780441,-201.40667)">
		<g
   id="XMLID_1_"
   transform="matrix(0.98652274,0,0,0.98652279,-3.5808921,5.4113937)">
			<polygon
   class="st1"
   points="-67.5,464.5 -67.5,561.5 -57.5,561.5 -57.5,464.5 "
   id="polygon8"
   style="fill:#ffffff" />
		</g>
		<g
   id="XMLID_2_">
			<path
   class="st1"
   d="m -90.296215,473.51649 v 76.06072 h -76.060945 v -76.06072 h 76.060945 m 9.865189,-9.86526 h -95.791414 v 95.79126 h 95.791414 z"
   id="path11"
   inkscape:connector-curvature="0"
   style="fill:#ffffff;stroke-width:0.98652363" />
		<g
   id="token-/-vector-/-dark-/-sTRX"
   transform="matrix(0.71925924,0,0,0.71925924,-553.18406,282.52251)"
   style="fill:none;fill-rule:evenodd;stroke:none;stroke-width:1"><g
     transform="translate(67,85)"
     id="logo-/-icon-/-snx-/-snx-light"
     style="fill:#ffffff"><polygon
       points="82.457252,5.5284274 94.94077,14.434454 16.424287,123.52843 3.9407697,114.6224 "
       id="Stroke"
       style="opacity:0.5" /><path
       id="Path"
       d="m 56.868108,57.349485 h 4.191298 C 80.356563,57.349485 96,72.941284 96,92.174743 96,111.4082 80.356563,127 61.059406,127 H 9.6758535 C 5.436597,127 2,123.57475 2,119.34949 c 0,-4.22527 3.436597,-7.65052 7.6758535,-7.65052 H 61.059406 c 10.818644,0 19.588889,-8.74129 19.588889,-19.524227 0,-10.782933 -8.770245,-19.524228 -19.588889,-19.524228 h -19.924235 -0.0033 -4.191277 C 17.643437,72.650515 2,57.058716 2,37.825257 2,18.591799 17.643437,3 36.940594,3 H 88.324146 C 92.563403,3 96,6.4252522 96,10.650515 96,14.875778 92.563403,18.30103 88.324146,18.30103 H 36.940594 c -10.818644,0 -19.588889,8.741294 -19.588889,19.524227 0,10.782933 8.770245,19.524228 19.588889,19.524228 h 19.924235 c 0.0011,0 0.0022,0 0.0033,0 z"
       inkscape:connector-curvature="0" /></g><path
     transform="rotate(-90,196.46,156)"
     id="TRX"
     d="m 138.62,135 h 33.24 v 7.74 H 159.74 V 177 h -9 v -34.26 h -12.12 z m 56.76,0 c 3.04001,0 5.72999,0.56999 8.07,1.71 2.34001,1.14001 4.14999,2.76999 5.43,4.89 1.28001,2.12001 1.92,4.57999 1.92,7.38 0,2.68001 -0.63999,5.04999 -1.92,7.11 -1.28001,2.06001 -3.03999,3.62999 -5.28,4.71 l 8.28,16.2 h -9.96 l -7.02,-14.1 h -7.62 V 177 h -9 v -42 z m -8.1,20.4 h 7.38 c 2.12001,0 3.80999,-0.57999 5.07,-1.74 1.26001,-1.16 1.89,-2.71999 1.89,-4.68 0,-2.00001 -0.62999,-3.57999 -1.89,-4.74 -1.26001,-1.16001 -2.94999,-1.74 -5.07,-1.74 h -7.38 z m 41.94,0.18 L 216.14,135 h 10.92 l 8.28,13.2 8.46,-13.2 h 9.84 L 240.56,155.58 254.3,177 h -10.98 l -8.94,-14.1 -9.12,14.1 h -9.78 z"
     inkscape:connector-curvature="0"
     style="fill:#ffffff;fill-rule:nonzero" /></g></g>
	</g>
</g>
<g
   id="Currency"
   transform="matrix(1.3379232,0,0,1.3379232,45.591808,-177.50509)">
	<g
   id="USD_1_">
		<g
   transform="rotate(-90,189.035,14.062)"
   id="g22">
			<g
   id="g17">
				<path
   id="a"
   d="m -350.8,-221.1 v 20.6 c 0,2.9 0.6,5 1.7,6.5 1.1,1.5 2.9,2.2 5.3,2.2 2.4,0 4.2,-0.7 5.3,-2.2 1.1,-1.5 1.7,-3.6 1.7,-6.5 v -20.6 h 7.6 v 20.2 c 0,5.1 -1.2,9 -3.7,11.6 -2.5,2.7 -6.1,4 -10.9,4 -4.8,0 -8.4,-1.3 -10.9,-4 -2.5,-2.7 -3.7,-6.6 -3.7,-11.6 v -20.2 c -0.1,0 7.6,0 7.6,0 z m 33.5,24 c 0.1,1.8 0.9,3.2 2.2,4.2 1.3,1.1 3,1.6 5.2,1.6 1.8,0 3.3,-0.4 4.4,-1.1 1.1,-0.8 1.7,-1.8 1.7,-3.2 0,-0.9 -0.3,-1.7 -0.9,-2.3 -0.6,-0.6 -1.5,-1 -2.6,-1.3 -1.1,-0.3 -2.9,-0.7 -5.3,-1.2 -2.3,-0.4 -4.3,-1 -5.9,-1.7 -1.6,-0.7 -2.9,-1.7 -3.9,-3.1 -1,-1.4 -1.5,-3.2 -1.5,-5.5 0,-2.1 0.6,-3.9 1.7,-5.5 1.1,-1.6 2.7,-2.9 4.7,-3.8 2,-0.9 4.3,-1.4 6.8,-1.4 2.6,0 5,0.5 7,1.4 2.1,1 3.7,2.3 4.9,4 1.2,1.7 1.8,3.6 1.9,5.7 h -7.5 c -0.2,-1.5 -0.8,-2.8 -1.9,-3.7 -1.1,-0.9 -2.6,-1.4 -4.4,-1.4 -1.7,0 -3,0.4 -4.1,1.1 -1,0.7 -1.5,1.7 -1.5,3 0,0.9 0.3,1.7 0.9,2.2 0.6,0.5 1.5,0.9 2.6,1.3 1.1,0.3 2.8,0.7 5.2,1.1 2.4,0.4 4.4,1 6,1.7 1.6,0.7 2.9,1.7 3.9,3 1,1.3 1.5,3.1 1.5,5.4 0,2.2 -0.6,4.1 -1.8,5.8 -1.2,1.7 -2.8,3.1 -5,4 -2.1,1 -4.5,1.5 -7.1,1.5 -2.8,0 -5.4,-0.5 -7.6,-1.6 -2.2,-1 -4,-2.5 -5.2,-4.3 -1.3,-1.8 -1.9,-3.9 -1.9,-6.1 0,0.1 7.5,0.2 7.5,0.2 z m 25.7,-24 h 12.3 c 3.6,0 6.7,0.8 9.4,2.3 2.7,1.5 4.8,3.6 6.3,6.3 1.5,2.7 2.2,5.8 2.2,9.2 0,3.5 -0.7,6.5 -2.2,9.2 -1.5,2.7 -3.6,4.8 -6.3,6.3 -2.7,1.5 -5.9,2.3 -9.4,2.3 h -12.3 z m 12.3,29.2 c 3.2,0 5.7,-1 7.5,-3.1 1.8,-2.1 2.7,-4.9 2.7,-8.3 0,-3.5 -0.9,-6.2 -2.7,-8.3 -1.8,-2.1 -4.3,-3.1 -7.5,-3.1 h -4.7 v 22.9 z"
   inkscape:connector-curvature="0" />
			</g>
			<g
   id="g20">
				<path
   id="a_1_"
   class="st1"
   d="m -350.8,-221.1 v 20.6 c 0,2.9 0.6,5 1.7,6.5 1.1,1.5 2.9,2.2 5.3,2.2 2.4,0 4.2,-0.7 5.3,-2.2 1.1,-1.5 1.7,-3.6 1.7,-6.5 v -20.6 h 7.6 v 20.2 c 0,5.1 -1.2,9 -3.7,11.6 -2.5,2.7 -6.1,4 -10.9,4 -4.8,0 -8.4,-1.3 -10.9,-4 -2.5,-2.7 -3.7,-6.6 -3.7,-11.6 v -20.2 c -0.1,0 7.6,0 7.6,0 z m 33.5,24 c 0.1,1.8 0.9,3.2 2.2,4.2 1.3,1.1 3,1.6 5.2,1.6 1.8,0 3.3,-0.4 4.4,-1.1 1.1,-0.8 1.7,-1.8 1.7,-3.2 0,-0.9 -0.3,-1.7 -0.9,-2.3 -0.6,-0.6 -1.5,-1 -2.6,-1.3 -1.1,-0.3 -2.9,-0.7 -5.3,-1.2 -2.3,-0.4 -4.3,-1 -5.9,-1.7 -1.6,-0.7 -2.9,-1.7 -3.9,-3.1 -1,-1.4 -1.5,-3.2 -1.5,-5.5 0,-2.1 0.6,-3.9 1.7,-5.5 1.1,-1.6 2.7,-2.9 4.7,-3.8 2,-0.9 4.3,-1.4 6.8,-1.4 2.6,0 5,0.5 7,1.4 2.1,1 3.7,2.3 4.9,4 1.2,1.7 1.8,3.6 1.9,5.7 h -7.5 c -0.2,-1.5 -0.8,-2.8 -1.9,-3.7 -1.1,-0.9 -2.6,-1.4 -4.4,-1.4 -1.7,0 -3,0.4 -4.1,1.1 -1,0.7 -1.5,1.7 -1.5,3 0,0.9 0.3,1.7 0.9,2.2 0.6,0.5 1.5,0.9 2.6,1.3 1.1,0.3 2.8,0.7 5.2,1.1 2.4,0.4 4.4,1 6,1.7 1.6,0.7 2.9,1.7 3.9,3 1,1.3 1.5,3.1 1.5,5.4 0,2.2 -0.6,4.1 -1.8,5.8 -1.2,1.7 -2.8,3.1 -5,4 -2.1,1 -4.5,1.5 -7.1,1.5 -2.8,0 -5.4,-0.5 -7.6,-1.6 -2.2,-1 -4,-2.5 -5.2,-4.3 -1.3,-1.8 -1.9,-3.9 -1.9,-6.1 0,0.1 7.5,0.2 7.5,0.2 z m 25.7,-24 h 12.3 c 3.6,0 6.7,0.8 9.4,2.3 2.7,1.5 4.8,3.6 6.3,6.3 1.5,2.7 2.2,5.8 2.2,9.2 0,3.5 -0.7,6.5 -2.2,9.2 -1.5,2.7 -3.6,4.8 -6.3,6.3 -2.7,1.5 -5.9,2.3 -9.4,2.3 h -12.3 z m 12.3,29.2 c 3.2,0 5.7,-1 7.5,-3.1 1.8,-2.1 2.7,-4.9 2.7,-8.3 0,-3.5 -0.9,-6.2 -2.7,-8.3 -1.8,-2.1 -4.3,-3.1 -7.5,-3.1 h -4.7 v 22.9 z"
   inkscape:connector-curvature="0"
   style="fill:#ffffff" />
			</g>
		</g>
	</g>
</g>
</svg>