<?xml version="1.0" standalone="no"?>
<!DOCTYPE svg PUBLIC "-//W3C//DTD SVG 20010904//EN"
 "http://www.w3.org/TR/2001/REC-SVG-20010904/DTD/svg10.dtd">
<svg version="1.0" xmlns="http://www.w3.org/2000/svg"
 width="188.000000pt" height="188.000000pt" viewBox="0 0 188.000000 188.000000"
 preserveAspectRatio="xMidYMid meet">
<metadata>
Created by potrace 1.11, written by Peter Selinger 2001-2013
</metadata>
<g transform="translate(0.000000,188.000000) scale(0.100000,-0.100000)"
fill="#000000" stroke="none">
<path d="M0 945 l0 -675 675 0 675 0 0 675 0 675 -675 0 -675 0 0 -675z m1200
0 l0 -525 -525 0 -525 0 0 525 0 525 525 0 525 0 0 -525z"/>
<path d="M1690 945 l0 -675 90 0 90 0 0 675 0 675 -90 0 -90 0 0 -675z"/>
</g>
</svg>
