<?xml version="1.0" encoding="UTF-8" standalone="no"?>
<!DOCTYPE svg PUBLIC "-//W3C//DTD SVG 20010904//EN"
              "http://www.w3.org/TR/2001/REC-SVG-20010904/DTD/svg10.dtd">

<svg xmlns="http://www.w3.org/2000/svg"
     width="3.46667in" height="4.67778in"
     viewBox="0 0 312 421">
  <path id="Selection #1"
        fill="#ffd200" stroke="black" stroke-width="1"
        d="M 123.55,0.00
           C 127.11,27.00 127.23,76.44 124.59,103.69
             124.59,103.69 116.06,159.91 116.06,159.91
             116.06,159.91 114.24,148.66 114.24,148.66
             114.24,148.66 109.77,129.92 109.77,129.92
             109.77,129.92 97.34,94.94 97.34,94.94
             91.80,98.32 85.43,113.50 81.62,119.93
             81.62,119.93 46.15,172.40 46.15,172.40
             27.23,199.76 8.61,226.52 1.81,259.85
             -0.70,272.15 -0.14,284.82 0.00,297.32
             0.15,310.13 4.22,325.46 8.99,337.30
             24.72,376.40 50.53,398.73 89.86,412.36
             103.38,417.04 119.15,420.83 133.54,421.00
             148.92,421.17 164.47,421.66 179.71,419.20
             224.44,411.99 265.57,389.92 290.31,351.04
             298.46,338.22 300.29,329.99 304.54,316.06
             307.56,306.18 311.88,284.99 312.00,274.84
             312.15,261.54 312.69,247.97 310.18,234.86
             305.71,211.52 288.62,177.44 274.26,158.66
             262.99,143.90 253.66,140.94 239.44,121.18
             239.44,121.18 239.44,139.92 239.44,139.92
             237.49,153.50 234.89,154.86 230.88,166.15
             230.88,166.15 214.43,122.43 214.43,122.43
             200.25,91.27 175.01,57.05 152.61,31.23
             145.25,22.76 132.26,5.40 123.55,0.00 Z"
 />
   <path id="Selection #2"
        fill="#ec8118" stroke="black" stroke-width="1"
        d="M 160.99,142.42
           C 160.99,142.42 186.66,183.64 186.66,183.64
             197.62,202.82 206.63,226.49 208.42,248.60
             215.49,239.35 216.30,236.03 218.40,224.87
             222.76,229.49 231.90,240.79 235.09,246.10
             243.16,259.58 251.18,285.32 250.84,301.07
             250.69,307.28 249.29,313.76 247.92,319.81
             242.19,345.11 229.97,367.91 205.92,380.01
             159.47,403.41 86.14,391.04 68.68,336.05
             66.49,329.19 64.98,322.02 64.90,314.81
             64.70,297.29 67.57,283.96 76.42,268.59
             91.83,241.83 119.71,222.99 134.78,196.13
             140.55,204.23 142.27,224.78 142.27,234.86
             149.44,220.11 156.07,187.90 158.13,171.15
             158.92,164.80 159.01,147.41 160.99,142.42 Z"
 />
</svg>



