<?xml version="1.0" encoding="UTF-8" standalone="no"?>
<!DOCTYPE svg PUBLIC "-//W3C//DTD SVG 20010904//EN"
              "http://www.w3.org/TR/2001/REC-SVG-20010904/DTD/svg10.dtd">

<svg xmlns="http://www.w3.org/2000/svg"
     width="55.5556in" height="55.5556in"
     viewBox="0 0 4000 4000">
  <path id="Selection #1"
        fill="#ffddbf" stroke="black" stroke-width="1"
        d="M 1554.00,0.00
           C 1554.00,0.00 1554.00,16.00 1554.00,16.00
             1554.00,16.00 1553.00,32.00 1553.00,32.00
             1553.00,32.00 1553.00,52.00 1553.00,52.00
             1553.00,52.00 1552.00,69.00 1552.00,69.00
             1552.00,69.00 1552.00,97.00 1552.00,97.00
             1552.00,97.00 1551.00,114.00 1551.00,114.00
             1551.00,114.00 1551.00,155.00 1551.00,155.00
             1551.00,155.00 1550.00,172.00 1550.00,172.00
             1550.00,172.00 1550.00,251.00 1550.00,251.00
             1550.00,251.00 1549.00,266.00 1549.00,266.00
             1549.00,266.00 1549.00,428.00 1549.00,428.00
             1549.00,428.00 1550.00,443.00 1550.00,443.00
             1550.00,443.00 1550.00,526.00 1550.00,526.00
             1550.00,526.00 1551.00,541.00 1551.00,541.00
             1551.00,541.00 1551.00,586.00 1551.00,586.00
             1551.00,586.00 1552.00,603.00 1552.00,603.00
             1552.00,603.00 1552.00,634.00 1552.00,634.00
             1552.00,634.00 1553.00,650.00 1553.00,650.00
             1553.00,650.00 1553.00,675.00 1553.00,675.00
             1553.00,675.00 1554.00,690.00 1554.00,690.00
             1554.00,690.00 1554.00,712.00 1554.00,712.00
             1554.00,712.00 1555.00,728.00 1555.00,728.00
             1555.00,728.00 1555.00,744.00 1555.00,744.00
             1555.00,744.00 1556.00,760.00 1556.00,760.00
             1556.00,760.00 1557.00,799.00 1557.00,799.00
             1557.00,799.00 1558.00,816.00 1558.00,816.00
             1558.00,816.00 1559.00,849.00 1559.00,849.00
             1559.00,849.00 1560.00,864.00 1560.00,864.00
             1560.00,864.00 1561.00,885.00 1561.00,885.00
             1561.00,885.00 1563.00,928.00 1563.00,928.00
             1563.00,928.00 1564.00,938.00 1564.00,938.00
             1564.00,938.00 1564.00,948.00 1564.00,948.00
             1564.00,948.00 1565.00,962.00 1565.00,962.00
             1565.00,962.00 1566.00,972.00 1566.00,972.00
             1566.00,972.00 1566.00,981.00 1566.00,981.00
             1566.00,981.00 1568.91,1017.00 1568.91,1017.00
             1573.02,1077.11 1578.47,1137.29 1587.27,1197.00
             1587.27,1197.00 1599.00,1260.00 1599.00,1260.00
             1599.00,1260.00 1621.12,1359.00 1621.12,1359.00
             1621.12,1359.00 1666.12,1550.00 1666.12,1550.00
             1703.16,1706.21 1731.88,1864.20 1755.27,2023.00
             1765.91,2095.21 1775.14,2167.39 1782.17,2240.00
             1782.17,2240.00 1787.09,2302.00 1787.09,2302.00
             1787.09,2302.00 1789.00,2328.00 1789.00,2328.00
             1789.00,2328.00 1790.00,2361.00 1790.00,2361.00
             1790.00,2361.00 1791.00,2378.00 1791.00,2378.00
             1791.07,2423.86 1791.08,2474.39 1779.87,2519.00
             1774.65,2539.81 1764.52,2567.71 1741.00,2572.79
             1737.57,2573.53 1734.54,2574.14 1731.00,2573.83
             1717.83,2572.66 1707.80,2563.27 1700.43,2553.00
             1687.08,2534.42 1677.70,2507.01 1671.42,2485.00
             1657.75,2437.03 1649.40,2383.55 1643.28,2334.00
             1643.28,2334.00 1636.72,2272.00 1636.72,2272.00
             1633.31,2243.71 1625.85,2205.33 1618.00,2178.00
             1612.73,2159.65 1605.91,2137.14 1595.77,2121.00
             1591.29,2113.86 1584.45,2105.19 1575.00,2106.20
             1564.46,2107.33 1558.14,2119.25 1554.60,2128.00
             1546.59,2147.84 1545.35,2170.92 1543.91,2192.00
             1543.91,2192.00 1543.00,2204.00 1543.00,2204.00
             1543.00,2204.00 1543.00,2268.00 1543.00,2268.00
             1543.00,2268.00 1544.00,2289.00 1544.00,2289.00
             1544.00,2289.00 1545.00,2308.00 1545.00,2308.00
             1545.00,2308.00 1546.91,2333.00 1546.91,2333.00
             1546.91,2333.00 1551.17,2387.00 1551.17,2387.00
             1551.17,2387.00 1566.17,2515.00 1566.17,2515.00
             1566.17,2515.00 1569.00,2544.00 1569.00,2544.00
             1569.00,2544.00 1569.00,2553.00 1569.00,2553.00
             1569.00,2553.00 1570.00,2565.00 1570.00,2565.00
             1570.00,2565.00 1570.00,2638.00 1570.00,2638.00
             1570.00,2638.00 1569.09,2648.00 1569.09,2648.00
             1569.09,2648.00 1568.28,2662.00 1568.28,2662.00
             1564.18,2696.24 1555.72,2748.93 1511.00,2749.00
             1511.00,2749.00 1507.00,2749.00 1507.00,2749.00
             1485.55,2748.75 1463.27,2732.00 1452.87,2714.00
             1441.66,2694.60 1434.24,2653.78 1430.41,2631.00
             1424.29,2594.51 1420.39,2557.78 1416.83,2521.00
             1416.83,2521.00 1404.09,2359.00 1404.09,2359.00
             1404.09,2359.00 1402.91,2334.00 1402.91,2334.00
             1402.91,2334.00 1399.09,2279.00 1399.09,2279.00
             1399.09,2279.00 1397.72,2254.00 1397.72,2254.00
             1394.51,2226.89 1392.00,2191.95 1377.98,2168.00
             1370.94,2155.97 1360.18,2144.16 1345.00,2145.09
             1340.90,2145.34 1336.80,2146.71 1333.00,2148.20
             1312.85,2156.15 1305.38,2173.08 1298.19,2192.00
             1288.90,2216.46 1282.66,2256.59 1279.84,2283.00
             1279.84,2283.00 1276.00,2319.00 1276.00,2319.00
             1276.00,2319.00 1276.00,2328.00 1276.00,2328.00
             1276.00,2328.00 1274.91,2342.00 1274.91,2342.00
             1274.91,2342.00 1274.00,2352.00 1274.00,2352.00
             1274.00,2352.00 1273.00,2381.00 1273.00,2381.00
             1273.00,2381.00 1272.00,2397.00 1272.00,2397.00
             1272.00,2397.00 1272.00,2417.00 1272.00,2417.00
             1272.00,2417.00 1271.00,2434.00 1271.00,2434.00
             1271.00,2434.00 1271.00,2595.00 1271.00,2595.00
             1271.00,2595.00 1272.00,2610.00 1272.00,2610.00
             1272.00,2610.00 1272.00,2636.00 1272.00,2636.00
             1272.00,2636.00 1271.00,2650.00 1271.00,2650.00
             1270.90,2672.34 1268.54,2694.79 1266.16,2717.00
             1261.91,2756.75 1255.82,2794.09 1242.66,2832.00
             1236.06,2850.99 1222.99,2878.40 1202.00,2884.07
             1198.03,2885.15 1194.07,2885.04 1190.00,2885.00
             1151.82,2884.55 1133.02,2858.25 1124.88,2824.00
             1119.62,2801.84 1119.96,2778.62 1120.00,2756.00
             1120.00,2756.00 1121.00,2734.00 1121.00,2734.00
             1121.00,2734.00 1122.91,2708.00 1122.91,2708.00
             1122.91,2708.00 1124.09,2684.00 1124.09,2684.00
             1124.09,2684.00 1126.00,2654.00 1126.00,2654.00
             1126.00,2654.00 1127.00,2644.00 1127.00,2644.00
             1127.00,2644.00 1127.00,2634.00 1127.00,2634.00
             1127.00,2634.00 1128.00,2618.00 1128.00,2618.00
             1128.00,2618.00 1128.96,2608.00 1128.96,2608.00
             1128.96,2608.00 1128.96,2599.00 1128.96,2599.00
             1128.96,2599.00 1130.00,2580.00 1130.00,2580.00
             1130.00,2580.00 1131.00,2563.00 1131.00,2563.00
             1131.00,2563.00 1132.00,2528.00 1132.00,2528.00
             1132.00,2528.00 1133.00,2511.00 1133.00,2511.00
             1133.00,2511.00 1133.00,2491.00 1133.00,2491.00
             1133.00,2491.00 1134.00,2475.00 1134.00,2475.00
             1134.00,2475.00 1134.00,2372.00 1134.00,2372.00
             1134.00,2372.00 1133.00,2357.00 1133.00,2357.00
             1133.00,2357.00 1132.00,2324.00 1132.00,2324.00
             1132.00,2324.00 1131.04,2313.00 1131.04,2313.00
             1131.04,2313.00 1126.15,2257.00 1126.15,2257.00
             1123.01,2230.71 1115.46,2186.64 1102.57,2164.00
             1096.01,2152.47 1085.90,2139.08 1071.00,2140.10
             1061.82,2140.72 1054.70,2146.90 1049.49,2154.00
             1040.50,2166.25 1035.82,2183.29 1032.58,2198.00
             1025.87,2228.42 1024.78,2259.18 1021.83,2290.00
             1021.83,2290.00 1018.17,2325.00 1018.17,2325.00
             1018.17,2325.00 1016.91,2347.00 1016.91,2347.00
             1016.91,2347.00 1016.00,2357.00 1016.00,2357.00
             1016.00,2357.00 1014.00,2396.00 1014.00,2396.00
             1014.00,2396.00 1013.00,2406.00 1013.00,2406.00
             1013.00,2406.00 1013.00,2415.00 1013.00,2415.00
             1013.00,2415.00 1010.09,2451.00 1010.09,2451.00
             1007.63,2486.78 1003.93,2522.51 998.42,2558.00
             992.68,2594.98 982.49,2645.03 965.11,2678.00
             951.44,2703.93 933.61,2725.35 902.00,2725.00
             894.11,2724.91 880.36,2722.22 874.09,2717.36
             871.55,2715.40 869.74,2712.70 868.06,2710.00
             861.10,2698.80 856.64,2677.23 854.73,2664.00
             854.73,2664.00 849.91,2617.00 849.91,2617.00
             849.91,2617.00 849.00,2606.00 849.00,2606.00
             849.00,2606.00 848.00,2588.00 848.00,2588.00
             848.00,2588.00 847.00,2509.00 847.00,2509.00
             847.00,2509.00 848.00,2494.00 848.00,2494.00
             848.00,2494.00 848.00,2465.00 848.00,2465.00
             848.00,2465.00 848.96,2453.00 848.96,2453.00
             848.96,2453.00 848.96,2436.00 848.96,2436.00
             848.96,2436.00 849.96,2424.00 849.96,2424.00
             849.96,2424.00 849.96,2411.00 849.96,2411.00
             849.96,2411.00 851.00,2397.00 851.00,2397.00
             851.00,2397.00 852.00,2372.00 852.00,2372.00
             852.00,2372.00 852.96,2360.00 852.96,2360.00
             852.96,2360.00 852.96,2352.00 852.96,2352.00
             852.96,2352.00 854.00,2335.00 854.00,2335.00
             854.00,2335.00 855.00,2325.00 855.00,2325.00
             855.00,2325.00 855.00,2316.00 855.00,2316.00
             855.00,2316.00 857.91,2279.00 857.91,2279.00
             857.91,2279.00 866.17,2170.00 866.17,2170.00
             866.17,2170.00 874.17,2085.00 874.17,2085.00
             874.17,2085.00 878.72,2051.00 878.72,2051.00
             878.72,2051.00 882.96,2010.00 882.96,2010.00
             882.96,2010.00 882.96,2002.00 882.96,2002.00
             882.96,2002.00 884.00,1992.00 884.00,1992.00
             884.00,1992.00 885.00,1971.00 885.00,1971.00
             885.00,1971.00 885.00,1928.00 885.00,1928.00
             885.00,1928.00 883.09,1903.00 883.09,1903.00
             880.95,1873.68 874.24,1836.82 857.92,1812.00
             853.22,1804.84 848.98,1800.95 843.00,1795.00
             828.45,1780.52 810.15,1768.76 789.00,1769.00
             776.98,1769.14 764.69,1774.94 755.00,1781.72
             738.59,1793.21 719.10,1816.38 705.73,1832.00
             678.16,1864.21 651.92,1898.97 628.03,1934.00
             601.99,1972.19 584.15,2005.39 544.00,2032.00
             511.65,2053.43 468.72,2065.66 437.00,2035.91
             431.80,2031.03 427.09,2024.67 424.46,2018.00
             421.66,2010.90 420.92,2003.55 421.00,1996.00
             421.31,1969.43 440.25,1937.00 452.69,1914.00
             475.83,1871.22 498.44,1828.23 518.69,1784.00
             518.69,1784.00 545.86,1722.00 545.86,1722.00
             567.44,1673.15 590.15,1624.40 618.42,1579.00
             618.42,1579.00 685.67,1479.00 685.67,1479.00
             720.05,1427.51 753.82,1375.63 786.42,1323.00
             786.42,1323.00 831.42,1249.00 831.42,1249.00
             852.55,1212.59 878.97,1171.18 895.58,1133.00
             930.98,1051.59 949.86,971.36 963.42,884.00
             963.42,884.00 971.84,823.00 971.84,823.00
             971.84,823.00 979.17,748.00 979.17,748.00
             979.17,748.00 984.00,689.00 984.00,689.00
             984.00,689.00 984.00,680.00 984.00,680.00
             984.00,680.00 986.00,652.00 986.00,652.00
             986.00,652.00 987.00,636.00 987.00,636.00
             987.00,636.00 988.00,610.00 988.00,610.00
             988.00,610.00 989.00,594.00 989.00,594.00
             989.00,594.00 990.00,562.00 990.00,562.00
             990.00,562.00 991.00,547.00 991.00,547.00
             991.00,547.00 992.00,511.00 992.00,511.00
             992.00,511.00 993.00,496.00 993.00,496.00
             993.00,496.00 994.00,461.00 994.00,461.00
             994.00,461.00 994.96,451.00 994.96,451.00
             994.96,451.00 994.96,439.00 994.96,439.00
             994.96,439.00 996.00,424.00 996.00,424.00
             996.00,424.00 996.00,405.00 996.00,405.00
             996.00,405.00 997.00,389.00 997.00,389.00
             997.00,389.00 997.00,346.00 997.00,346.00
             997.00,346.00 996.00,331.00 996.00,331.00
             996.00,331.00 996.00,246.00 996.00,246.00
             996.00,246.00 995.00,231.00 995.00,231.00
             995.00,231.00 995.00,165.00 995.00,165.00
             995.00,165.00 994.00,150.00 994.00,150.00
             994.00,150.00 994.00,0.00 994.00,0.00
             994.00,0.00 1554.00,0.00 1554.00,0.00 Z
           M 2431.04,3984.00
           C 2431.04,3984.00 2432.00,3973.00 2432.00,3973.00
             2432.00,3973.00 2432.00,3953.00 2432.00,3953.00
             2432.00,3953.00 2433.00,3936.00 2433.00,3936.00
             2433.00,3936.00 2433.00,3910.00 2433.00,3910.00
             2433.00,3910.00 2434.00,3893.00 2434.00,3893.00
             2434.00,3893.00 2434.00,3856.00 2434.00,3856.00
             2434.00,3856.00 2435.00,3839.00 2435.00,3839.00
             2435.00,3839.00 2435.00,3770.00 2435.00,3770.00
             2435.00,3770.00 2436.00,3755.00 2436.00,3755.00
             2436.00,3755.00 2436.00,3570.00 2436.00,3570.00
             2436.00,3570.00 2435.00,3555.00 2435.00,3555.00
             2435.00,3555.00 2435.00,3485.00 2435.00,3485.00
             2435.00,3485.00 2434.00,3470.00 2434.00,3470.00
             2434.00,3470.00 2434.00,3430.00 2434.00,3430.00
             2434.00,3430.00 2433.00,3413.00 2433.00,3413.00
             2433.00,3413.00 2433.00,3386.00 2433.00,3386.00
             2433.00,3386.00 2432.00,3371.00 2432.00,3371.00
             2432.00,3371.00 2432.00,3348.00 2432.00,3348.00
             2432.00,3348.00 2431.00,3331.00 2431.00,3331.00
             2431.00,3331.00 2431.00,3314.00 2431.00,3314.00
             2431.00,3314.00 2430.00,3298.00 2430.00,3298.00
             2430.00,3298.00 2430.00,3284.00 2430.00,3284.00
             2430.00,3284.00 2429.00,3268.00 2429.00,3268.00
             2429.00,3268.00 2428.00,3232.00 2428.00,3232.00
             2428.00,3232.00 2427.00,3216.00 2427.00,3216.00
             2427.00,3216.00 2426.00,3185.00 2426.00,3185.00
             2426.00,3185.00 2425.00,3170.00 2425.00,3170.00
             2425.00,3170.00 2424.00,3150.00 2424.00,3150.00
             2424.00,3150.00 2422.00,3110.00 2422.00,3110.00
             2422.00,3110.00 2420.09,3084.00 2420.09,3084.00
             2420.09,3084.00 2417.91,3046.00 2417.91,3046.00
             2417.91,3046.00 2416.09,3026.00 2416.09,3026.00
             2411.93,2965.55 2405.89,2904.97 2396.58,2845.00
             2388.50,2792.96 2376.03,2741.22 2363.88,2690.00
             2363.88,2690.00 2318.65,2497.00 2318.65,2497.00
             2292.09,2381.29 2268.06,2264.97 2247.75,2148.00
             2237.42,2088.51 2227.60,2028.86 2219.72,1969.00
             2219.72,1969.00 2201.83,1816.00 2201.83,1816.00
             2201.83,1816.00 2197.91,1769.00 2197.91,1769.00
             2197.91,1769.00 2196.00,1744.00 2196.00,1744.00
             2196.00,1744.00 2195.00,1721.00 2195.00,1721.00
             2195.00,1721.00 2194.00,1705.00 2194.00,1705.00
             2194.00,1705.00 2194.00,1691.00 2194.00,1691.00
             2194.00,1691.00 2193.00,1676.00 2193.00,1676.00
             2192.93,1633.93 2193.28,1578.55 2203.13,1538.00
             2209.15,1513.24 2220.59,1476.08 2252.00,1476.08
             2265.61,1476.08 2277.33,1486.40 2284.65,1497.00
             2298.77,1517.43 2306.90,1541.33 2313.71,1565.00
             2327.50,1612.97 2335.54,1665.46 2341.72,1715.00
             2341.72,1715.00 2349.28,1785.00 2349.28,1785.00
             2352.94,1812.82 2359.81,1844.89 2367.15,1872.00
             2371.71,1888.85 2379.74,1913.37 2388.81,1928.00
             2392.80,1934.43 2398.86,1942.75 2407.00,1943.77
             2419.76,1945.39 2426.78,1929.79 2430.00,1920.00
             2437.42,1897.48 2438.28,1857.20 2438.00,1833.00
             2438.00,1833.00 2437.04,1823.00 2437.04,1823.00
             2437.04,1823.00 2437.04,1809.00 2437.04,1809.00
             2437.04,1809.00 2436.00,1796.00 2436.00,1796.00
             2436.00,1796.00 2434.09,1769.00 2434.09,1769.00
             2434.09,1769.00 2426.17,1689.00 2426.17,1689.00
             2426.17,1689.00 2421.09,1627.00 2421.09,1627.00
             2421.09,1627.00 2418.91,1590.00 2418.91,1590.00
             2418.91,1590.00 2418.00,1580.00 2418.00,1580.00
             2418.00,1580.00 2417.00,1557.00 2417.00,1557.00
             2417.00,1557.00 2415.96,1544.00 2415.96,1544.00
             2415.96,1544.00 2415.96,1530.00 2415.96,1530.00
             2415.96,1530.00 2415.00,1518.00 2415.00,1518.00
             2415.00,1518.00 2415.00,1418.00 2415.00,1418.00
             2415.00,1418.00 2416.00,1398.00 2416.00,1398.00
             2416.00,1398.00 2417.87,1378.00 2417.87,1378.00
             2422.20,1346.79 2433.68,1301.19 2473.00,1301.00
             2473.00,1301.00 2478.00,1301.00 2478.00,1301.00
             2499.59,1301.26 2520.82,1317.01 2531.55,1335.00
             2543.32,1354.73 2550.68,1394.74 2554.59,1418.00
             2568.95,1503.62 2574.97,1601.99 2580.91,1689.00
             2580.91,1689.00 2582.09,1714.00 2582.09,1714.00
             2582.09,1714.00 2585.91,1769.00 2585.91,1769.00
             2585.91,1769.00 2587.58,1796.00 2587.58,1796.00
             2587.58,1796.00 2589.16,1814.00 2589.16,1814.00
             2591.56,1836.34 2596.08,1859.84 2606.25,1880.00
             2612.61,1892.61 2624.58,1905.85 2640.00,1904.91
             2665.90,1903.32 2679.05,1879.55 2686.95,1858.00
             2696.47,1832.03 2702.20,1795.67 2705.16,1768.00
             2705.16,1768.00 2707.83,1744.00 2707.83,1744.00
             2707.83,1744.00 2709.17,1724.00 2709.17,1724.00
             2709.17,1724.00 2710.09,1710.00 2710.09,1710.00
             2710.09,1710.00 2711.00,1700.00 2711.00,1700.00
             2711.00,1700.00 2712.04,1679.00 2712.04,1679.00
             2712.04,1679.00 2712.04,1668.00 2712.04,1668.00
             2712.04,1668.00 2713.00,1657.00 2713.00,1657.00
             2713.00,1657.00 2713.00,1639.00 2713.00,1639.00
             2713.00,1639.00 2714.00,1622.00 2714.00,1622.00
             2714.00,1622.00 2714.00,1453.00 2714.00,1453.00
             2714.00,1453.00 2713.00,1438.00 2713.00,1438.00
             2713.00,1438.00 2713.00,1418.00 2713.00,1418.00
             2713.00,1418.00 2714.00,1405.00 2714.00,1405.00
             2714.40,1370.91 2717.86,1336.77 2722.73,1303.00
             2726.57,1276.36 2732.85,1244.19 2742.05,1219.00
             2749.94,1197.42 2764.11,1165.33 2791.00,1165.00
             2791.00,1165.00 2796.00,1165.00 2796.00,1165.00
             2832.86,1165.43 2853.57,1193.56 2860.40,1227.00
             2865.81,1253.49 2865.04,1270.54 2865.00,1297.00
             2865.00,1297.00 2864.00,1314.00 2864.00,1314.00
             2864.00,1314.00 2862.09,1344.00 2862.09,1344.00
             2862.09,1344.00 2860.91,1368.00 2860.91,1368.00
             2860.91,1368.00 2859.00,1398.00 2859.00,1398.00
             2859.00,1398.00 2858.00,1412.00 2858.00,1412.00
             2858.00,1412.00 2857.00,1428.00 2857.00,1428.00
             2857.00,1428.00 2856.00,1454.00 2856.00,1454.00
             2856.00,1454.00 2855.04,1464.00 2855.04,1464.00
             2855.04,1464.00 2855.04,1475.00 2855.04,1475.00
             2855.04,1475.00 2854.00,1490.00 2854.00,1490.00
             2854.00,1490.00 2853.00,1526.00 2853.00,1526.00
             2853.00,1526.00 2852.00,1543.00 2852.00,1543.00
             2852.00,1543.00 2852.00,1566.00 2852.00,1566.00
             2852.00,1566.00 2851.00,1581.00 2851.00,1581.00
             2851.00,1581.00 2851.00,1673.00 2851.00,1673.00
             2851.00,1673.00 2852.00,1688.00 2852.00,1688.00
             2852.00,1688.00 2852.00,1703.00 2852.00,1703.00
             2852.00,1703.00 2853.00,1716.00 2853.00,1716.00
             2853.41,1751.44 2859.57,1810.77 2868.13,1845.00
             2872.63,1863.04 2879.35,1886.13 2892.29,1899.91
             2894.79,1902.57 2897.81,1904.88 2901.00,1906.65
             2928.17,1921.75 2944.44,1884.46 2949.63,1864.00
             2956.74,1835.90 2959.10,1810.61 2961.83,1782.00
             2961.83,1782.00 2963.17,1761.00 2963.17,1761.00
             2963.17,1761.00 2968.00,1713.00 2968.00,1713.00
             2968.00,1713.00 2968.00,1705.00 2968.00,1705.00
             2968.00,1705.00 2969.00,1695.00 2969.00,1695.00
             2969.00,1695.00 2971.00,1656.00 2971.00,1656.00
             2971.00,1656.00 2972.00,1646.00 2972.00,1646.00
             2972.00,1646.00 2972.00,1637.00 2972.00,1637.00
             2972.00,1637.00 2973.91,1615.00 2973.91,1615.00
             2973.91,1615.00 2980.84,1536.00 2980.84,1536.00
             2986.45,1483.49 2997.91,1412.23 3023.31,1366.00
             3036.22,1342.51 3054.89,1324.69 3083.00,1325.00
             3094.95,1325.14 3109.82,1328.24 3116.53,1339.00
             3124.14,1351.21 3127.76,1369.86 3130.08,1384.00
             3130.08,1384.00 3135.09,1431.00 3135.09,1431.00
             3135.09,1431.00 3136.00,1442.00 3136.00,1442.00
             3136.00,1442.00 3137.00,1462.00 3137.00,1462.00
             3137.00,1462.00 3137.00,1477.00 3137.00,1477.00
             3137.00,1477.00 3138.00,1493.00 3138.00,1493.00
             3138.00,1493.00 3138.00,1550.00 3138.00,1550.00
             3138.00,1550.00 3137.00,1565.00 3137.00,1565.00
             3137.00,1565.00 3137.00,1589.00 3137.00,1589.00
             3137.00,1589.00 3136.04,1601.00 3136.04,1601.00
             3136.04,1601.00 3136.04,1617.00 3136.04,1617.00
             3136.04,1617.00 3135.00,1634.00 3135.00,1634.00
             3135.00,1634.00 3134.00,1663.00 3134.00,1663.00
             3134.00,1663.00 3133.00,1681.00 3133.00,1681.00
             3133.00,1681.00 3132.00,1693.00 3132.00,1693.00
             3132.00,1693.00 3132.00,1703.00 3132.00,1703.00
             3132.00,1703.00 3131.00,1717.00 3131.00,1717.00
             3131.00,1717.00 3130.00,1727.00 3130.00,1727.00
             3130.00,1727.00 3130.00,1736.00 3130.00,1736.00
             3130.00,1736.00 3128.09,1758.00 3128.09,1758.00
             3128.09,1758.00 3121.83,1846.00 3121.83,1846.00
             3121.83,1846.00 3110.83,1966.00 3110.83,1966.00
             3110.83,1966.00 3106.28,2000.00 3106.28,2000.00
             3106.28,2000.00 3102.83,2037.00 3102.83,2037.00
             3102.83,2037.00 3101.00,2060.00 3101.00,2060.00
             3101.00,2060.00 3100.00,2082.00 3100.00,2082.00
             3100.00,2082.00 3100.00,2117.00 3100.00,2117.00
             3100.00,2117.00 3101.00,2136.00 3101.00,2136.00
             3101.00,2136.00 3103.85,2164.00 3103.85,2164.00
             3106.73,2188.11 3114.41,2220.03 3128.44,2240.00
             3132.60,2245.92 3137.84,2250.95 3143.00,2255.99
             3157.29,2269.93 3175.50,2281.23 3196.00,2281.00
             3221.31,2280.71 3241.16,2260.12 3257.09,2243.00
             3257.09,2243.00 3279.41,2218.00 3279.41,2218.00
             3306.23,2186.04 3332.48,2152.71 3355.67,2118.00
             3372.04,2093.48 3394.08,2057.09 3416.00,2038.30
             3422.73,2032.53 3430.33,2027.82 3438.00,2023.43
             3458.63,2011.62 3491.02,1998.04 3515.00,1998.00
             3515.00,1998.00 3523.00,1998.00 3523.00,1998.00
             3530.67,1998.09 3539.93,2000.65 3545.96,2005.53
             3553.23,2011.40 3560.17,2028.02 3563.31,2037.00
             3566.33,2045.66 3568.10,2054.83 3568.00,2064.00
             3567.70,2089.97 3547.54,2109.74 3535.28,2131.00
             3535.28,2131.00 3511.69,2175.00 3511.69,2175.00
             3495.92,2204.17 3481.14,2233.87 3467.31,2264.00
             3467.31,2264.00 3444.14,2317.00 3444.14,2317.00
             3421.57,2368.08 3398.41,2419.30 3369.19,2467.00
             3369.19,2467.00 3317.02,2545.00 3317.02,2545.00
             3317.02,2545.00 3277.67,2604.00 3277.67,2604.00
             3236.12,2666.32 3196.33,2729.77 3157.80,2794.00
             3134.66,2832.57 3107.94,2876.42 3089.31,2917.00
             3045.91,3011.50 3021.22,3125.76 3010.16,3229.00
             3010.16,3229.00 3003.83,3296.00 3003.83,3296.00
             3003.83,3296.00 3000.91,3335.00 3000.91,3335.00
             3000.91,3335.00 2999.00,3360.00 2999.00,3360.00
             2999.00,3360.00 2998.00,3382.00 2998.00,3382.00
             2998.00,3382.00 2997.00,3397.00 2997.00,3397.00
             2997.00,3397.00 2996.00,3415.00 2996.00,3415.00
             2996.00,3415.00 2995.00,3443.00 2995.00,3443.00
             2995.00,3443.00 2994.00,3460.00 2994.00,3460.00
             2994.00,3460.00 2993.00,3492.00 2993.00,3492.00
             2993.00,3492.00 2992.00,3509.00 2992.00,3509.00
             2992.00,3509.00 2991.00,3540.00 2991.00,3540.00
             2991.00,3540.00 2990.00,3562.00 2990.00,3562.00
             2990.00,3562.00 2989.00,3579.00 2989.00,3579.00
             2989.00,3579.00 2989.00,3744.00 2989.00,3744.00
             2989.00,3744.00 2990.00,3759.00 2990.00,3759.00
             2990.00,3759.00 2990.00,3823.00 2990.00,3823.00
             2990.00,3823.00 2991.00,3840.00 2991.00,3840.00
             2991.00,3840.00 2991.00,3928.00 2991.00,3928.00
             2991.00,3928.00 2992.00,3942.00 2992.00,3942.00
             2992.00,3942.00 2992.00,3970.00 2992.00,3970.00
             2992.00,3970.00 2991.00,3983.00 2991.00,3983.00
             2991.00,3983.00 2991.00,4000.00 2991.00,4000.00
             2991.00,4000.00 2431.04,4000.00 2431.04,4000.00
             2431.04,4000.00 2431.04,3984.00 2431.04,3984.00 Z" />
             <path id="test" fill="#d2d2d4" stroke="black" stroke-width="1"
        d="M 1276.00,1551.17
           C 1258.87,1552.80 1241.51,1555.80 1225.00,1560.72
             1147.19,1583.91 1076.28,1638.78 1044.86,1715.00
             1036.41,1735.49 1030.75,1763.84 1031.00,1786.00
             1031.00,1786.00 1031.76,1795.99 1031.76,1795.99
             1031.76,1795.99 1031.01,1807.00 1031.01,1807.00
             1030.78,1824.36 1034.87,1848.63 1040.69,1865.00
             1051.49,1895.35 1066.51,1917.12 1087.84,1941.00
             1126.10,1983.85 1175.64,2016.58 1233.00,2026.08
             1233.00,2026.08 1259.00,2029.00 1259.00,2029.00
             1289.97,2029.36 1312.30,2026.87 1342.00,2017.26
             1353.40,2013.56 1364.30,2008.60 1375.00,2003.25
             1436.62,1972.43 1485.49,1918.40 1507.92,1853.00
             1514.50,1833.82 1519.03,1808.26 1518.88,1788.00
             1518.88,1788.00 1518.88,1779.00 1518.88,1779.00
             1518.88,1779.00 1518.88,1769.00 1518.88,1769.00
             1518.88,1769.00 1518.88,1756.00 1518.88,1756.00
             1518.88,1756.00 1518.09,1744.00 1518.09,1744.00
             1513.42,1680.11 1474.90,1627.96 1424.00,1591.58
             1402.53,1576.24 1383.43,1566.02 1358.00,1558.71
             1341.46,1553.96 1326.13,1551.71 1309.00,1550.96
             1301.22,1550.62 1298.89,1549.46 1290.00,1550.28
             1290.00,1550.28 1276.00,1551.17 1276.00,1551.17 Z
           M 2736.00,2006.17
           C 2718.98,2007.79 2700.34,2010.97 2684.00,2016.02
             2612.91,2038.04 2546.58,2085.35 2512.75,2153.00
             2501.61,2175.29 2491.04,2206.93 2491.00,2232.00
             2490.94,2268.09 2489.87,2292.21 2503.06,2327.00
             2514.35,2356.75 2534.67,2383.67 2557.00,2406.00
             2557.00,2406.00 2572.00,2420.83 2572.00,2420.83
             2602.24,2448.18 2637.40,2467.97 2677.00,2477.87
             2688.48,2480.74 2706.29,2483.86 2718.00,2484.00
             2751.66,2484.39 2775.99,2481.71 2808.00,2470.31
             2871.23,2447.79 2926.05,2398.31 2955.26,2338.00
             2967.96,2311.77 2975.95,2287.23 2978.09,2258.00
             2978.09,2258.00 2979.00,2246.00 2979.00,2246.00
             2979.06,2207.75 2980.40,2182.83 2965.80,2146.00
             2949.56,2105.04 2919.50,2071.95 2884.00,2046.58
             2873.48,2039.06 2862.64,2031.93 2851.00,2026.26
             2835.20,2018.56 2819.15,2013.43 2802.00,2009.79
             2788.87,2007.00 2763.07,2004.07 2750.00,2005.28
             2750.00,2005.28 2736.00,2006.17 2736.00,2006.17 Z"></path>
             <path id="dollar" fill="#b2b3b7" stroke="black" stroke-width="1" d="M 1236.00,1751.69
           C 1232.33,1750.02 1228.57,1748.20 1227.43,1743.98
             1226.21,1739.45 1228.83,1732.11 1230.78,1728.00
             1235.83,1717.41 1242.84,1710.16 1251.00,1702.00
             1258.72,1694.27 1263.98,1692.22 1264.00,1681.00
             1264.00,1681.00 1264.00,1633.00 1264.00,1633.00
             1264.09,1626.55 1266.27,1621.06 1274.00,1622.24
             1280.95,1623.30 1281.28,1630.35 1281.83,1636.00
             1281.83,1636.00 1284.00,1678.00 1284.00,1678.00
             1296.27,1674.45 1307.23,1674.76 1318.00,1682.22
             1322.83,1685.56 1328.90,1691.62 1324.26,1697.77
             1318.95,1704.83 1312.10,1698.22 1307.00,1695.29
             1300.59,1691.78 1293.49,1691.28 1287.06,1695.29
             1282.87,1697.79 1283.03,1700.58 1283.00,1705.00
             1282.94,1713.94 1282.90,1736.18 1281.00,1744.00
             1299.71,1746.52 1317.27,1753.13 1327.54,1770.00
             1344.36,1797.63 1331.74,1834.17 1310.00,1854.96
             1302.24,1862.38 1290.71,1870.06 1280.00,1872.00
             1281.62,1881.03 1280.50,1880.95 1281.17,1888.00
             1281.17,1888.00 1285.07,1920.00 1285.07,1920.00
             1285.63,1925.99 1288.43,1933.98 1280.00,1935.59
             1271.72,1937.17 1271.04,1928.77 1270.28,1923.00
             1270.28,1923.00 1266.84,1893.00 1266.84,1893.00
             1266.84,1893.00 1265.00,1876.00 1265.00,1876.00
             1260.15,1876.00 1253.60,1876.31 1249.00,1875.33
             1234.38,1872.21 1225.30,1861.07 1217.81,1849.00
             1215.40,1845.13 1206.10,1830.47 1205.46,1827.00
             1204.58,1822.25 1208.38,1818.75 1213.00,1819.75
             1218.94,1821.04 1226.53,1833.91 1230.37,1839.00
             1239.26,1850.77 1247.94,1857.77 1263.00,1859.00
             1263.00,1859.00 1262.00,1814.00 1262.00,1814.00
             1262.00,1814.00 1262.00,1758.00 1262.00,1758.00
             1255.14,1757.07 1242.12,1754.46 1236.00,1751.69 Z
           M 1251.48,1729.00
           C 1250.49,1730.71 1248.96,1733.56 1249.68,1735.58
             1250.81,1738.78 1259.02,1739.60 1262.00,1740.00
             1262.00,1740.00 1264.00,1714.00 1264.00,1714.00
             1259.58,1718.18 1254.53,1723.73 1251.48,1729.00 Z
           M 1297.98,1842.96
           C 1318.18,1822.75 1327.99,1781.34 1297.98,1764.90
             1292.78,1762.04 1286.85,1760.79 1281.00,1760.00
             1281.00,1760.00 1281.00,1793.00 1281.00,1793.00
             1281.00,1793.00 1280.00,1810.00 1280.00,1810.00
             1280.00,1810.00 1280.00,1855.00 1280.00,1855.00
             1286.61,1852.05 1292.82,1848.10 1297.98,1842.96 Z"></path>
<path id="pound" fill="#b2b3b7"  stroke="black" stroke-width="1" 
        d="M 2707.70,2215.00
           C 2705.74,2201.69 2699.51,2188.74 2700.04,2175.00
             2700.04,2175.00 2700.91,2167.00 2700.91,2167.00
             2702.00,2151.47 2703.79,2138.32 2712.75,2125.00
             2725.90,2105.44 2746.99,2100.97 2769.00,2101.00
             2776.22,2101.01 2793.81,2102.64 2797.82,2109.33
             2800.15,2113.21 2798.42,2118.28 2793.96,2119.57
             2793.96,2119.57 2771.00,2118.74 2771.00,2118.74
             2762.87,2119.04 2756.85,2119.36 2749.00,2122.08
             2743.64,2123.94 2739.38,2126.26 2735.04,2129.93
             2722.75,2140.35 2717.37,2156.24 2717.01,2172.00
             2716.72,2184.90 2721.06,2197.36 2722.87,2210.00
             2722.87,2210.00 2726.58,2245.00 2726.58,2245.00
             2726.98,2248.05 2726.69,2255.68 2728.02,2257.69
             2729.86,2260.45 2734.09,2259.99 2737.00,2260.00
             2741.29,2260.01 2751.55,2259.11 2754.81,2261.60
             2758.68,2264.61 2759.06,2271.18 2754.81,2274.15
             2751.90,2276.23 2747.46,2275.99 2744.00,2276.00
             2744.00,2276.00 2726.00,2276.00 2726.00,2276.00
             2724.64,2292.67 2718.90,2302.87 2711.00,2317.00
             2724.59,2320.19 2725.81,2326.43 2743.00,2324.92
             2753.66,2323.99 2762.96,2317.78 2773.00,2314.52
             2778.84,2312.63 2783.96,2312.93 2790.00,2313.00
             2799.83,2313.12 2809.36,2316.74 2815.20,2325.00
             2819.50,2331.08 2820.80,2341.41 2810.00,2339.76
             2805.16,2339.02 2802.88,2334.46 2798.99,2331.99
             2794.09,2328.89 2788.60,2328.79 2783.00,2329.04
             2768.44,2329.69 2758.28,2341.82 2744.00,2342.00
             2731.87,2342.14 2727.57,2341.34 2716.00,2337.31
             2712.39,2336.05 2701.06,2331.32 2698.00,2331.48
             2694.87,2331.64 2690.89,2334.59 2688.00,2336.03
             2680.94,2339.56 2672.91,2341.91 2665.00,2342.00
             2662.54,2342.02 2658.32,2342.25 2656.22,2340.98
             2653.83,2339.52 2652.97,2336.59 2652.24,2334.00
             2651.93,2331.21 2651.97,2327.86 2652.24,2325.00
             2652.18,2309.05 2661.56,2288.63 2681.00,2295.34
             2687.44,2297.56 2691.79,2307.39 2696.91,2306.42
             2699.31,2305.96 2701.73,2301.98 2702.91,2300.00
             2707.59,2292.09 2707.87,2284.44 2710.00,2276.00
             2701.03,2273.82 2681.77,2277.00 2675.31,2271.30
             2671.52,2267.95 2672.86,2260.99 2678.09,2259.43
             2679.87,2258.90 2683.03,2259.05 2685.00,2258.91
             2690.99,2258.49 2694.62,2257.65 2701.00,2258.09
             2701.00,2258.09 2710.00,2259.00 2710.00,2259.00
             2710.00,2245.81 2709.61,2227.89 2707.70,2215.00 Z">  </path>           
             
            </svg>
