<?xml version="1.0" encoding="UTF-8" standalone="no"?>
<!DOCTYPE svg PUBLIC "-//W3C//DTD SVG 20010904//EN"
              "http://www.w3.org/TR/2001/REC-SVG-20010904/DTD/svg10.dtd">

<svg xmlns="http://www.w3.org/2000/svg"
     width="71.1111in" height="71.1111in"
     viewBox="0 0 5120 5120">
  <path id="Selection #2"
        fill="#ff060a" stroke="black" stroke-width="1"
        d="M 2552.00,0.14
           C 2552.00,0.14 2621.00,0.14 2621.00,0.14
             2621.00,0.14 2637.00,1.00 2637.00,1.00
             2637.00,1.00 2653.00,1.00 2653.00,1.00
             2653.00,1.00 2669.00,2.00 2669.00,2.00
             2669.00,2.00 2714.00,4.00 2714.00,4.00
             2714.00,4.00 2724.00,4.91 2724.00,4.91
             2724.00,4.91 2765.00,7.83 2765.00,7.83
             2765.00,7.83 2816.00,12.17 2816.00,12.17
             2816.00,12.17 2882.00,19.85 2882.00,19.85
             3018.48,36.16 3162.36,67.79 3294.00,107.28
             3631.85,208.64 3947.66,381.91 4216.00,610.73
             4216.00,610.73 4300.00,685.09 4300.00,685.09
             4300.00,685.09 4330.00,713.96 4330.00,713.96
             4330.00,713.96 4398.96,782.00 4398.96,782.00
             4458.00,843.73 4514.91,907.84 4567.79,975.00
             4762.51,1222.28 4911.56,1500.29 5005.02,1801.00
             5048.63,1941.30 5082.71,2092.07 5100.15,2238.00
             5100.15,2238.00 5107.83,2304.00 5107.83,2304.00
             5107.83,2304.00 5112.17,2355.00 5112.17,2355.00
             5112.17,2355.00 5115.09,2396.00 5115.09,2396.00
             5115.09,2396.00 5116.00,2406.00 5116.00,2406.00
             5116.00,2406.00 5117.00,2429.00 5117.00,2429.00
             5117.00,2429.00 5118.04,2445.00 5118.04,2445.00
             5118.04,2445.00 5118.04,2456.00 5118.04,2456.00
             5118.04,2456.00 5119.00,2466.00 5119.00,2466.00
             5119.00,2466.00 5119.00,2481.00 5119.00,2481.00
             5119.00,2481.00 5120.00,2498.00 5120.00,2498.00
             5120.00,2498.00 5120.00,2624.00 5120.00,2624.00
             5120.00,2624.00 5119.00,2638.00 5119.00,2638.00
             5119.00,2638.00 5119.00,2653.00 5119.00,2653.00
             5119.00,2653.00 5118.00,2669.00 5118.00,2669.00
             5118.00,2669.00 5116.00,2714.00 5116.00,2714.00
             5116.00,2714.00 5115.09,2724.00 5115.09,2724.00
             5115.09,2724.00 5112.09,2766.00 5112.09,2766.00
             5109.40,2804.39 5105.26,2842.81 5100.28,2881.00
             5084.66,3000.77 5061.95,3119.56 5029.58,3236.00
             4976.92,3425.38 4905.21,3603.08 4811.69,3776.00
             4624.49,4122.15 4349.92,4429.29 4028.00,4655.28
             3824.46,4798.17 3607.31,4907.91 3372.00,4988.00
             3201.73,5045.94 3008.98,5088.27 2830.00,5106.17
             2830.00,5106.17 2739.00,5114.09 2739.00,5114.09
             2739.00,5114.09 2690.00,5117.00 2690.00,5117.00
             2690.00,5117.00 2680.00,5117.96 2680.00,5117.96
             2680.00,5117.96 2667.00,5117.96 2667.00,5117.96
             2667.00,5117.96 2652.00,5119.00 2652.00,5119.00
             2652.00,5119.00 2637.00,5119.00 2637.00,5119.00
             2637.00,5119.00 2621.00,5120.00 2621.00,5120.00
             2621.00,5120.00 2497.00,5120.00 2497.00,5120.00
             2497.00,5120.00 2482.00,5119.00 2482.00,5119.00
             2482.00,5119.00 2467.00,5119.00 2467.00,5119.00
             2467.00,5119.00 2456.00,5118.04 2456.00,5118.04
             2456.00,5118.04 2445.00,5118.04 2445.00,5118.04
             2445.00,5118.04 2430.00,5117.00 2430.00,5117.00
             2430.00,5117.00 2406.00,5116.00 2406.00,5116.00
             2406.00,5116.00 2381.00,5114.09 2381.00,5114.09
             2381.00,5114.09 2343.00,5111.17 2343.00,5111.17
             2343.00,5111.17 2304.00,5107.83 2304.00,5107.83
             2262.90,5103.85 2221.86,5098.29 2181.00,5092.27
             2043.67,5072.04 1908.16,5039.62 1776.00,4997.26
             1776.00,4997.26 1678.00,4963.05 1678.00,4963.05
             1438.78,4875.56 1205.68,4745.74 1004.00,4590.35
             753.58,4397.40 539.99,4160.65 374.81,3891.00
             245.30,3679.58 145.92,3447.83 82.88,3208.00
             52.29,3091.60 30.65,2973.44 16.28,2854.00
             16.28,2854.00 8.83,2777.00 8.83,2777.00
             8.83,2777.00 5.91,2738.00 5.91,2738.00
             5.91,2738.00 4.00,2714.00 4.00,2714.00
             4.00,2714.00 3.00,2690.00 3.00,2690.00
             3.00,2690.00 1.96,2677.00 1.96,2677.00
             1.96,2677.00 1.96,2663.00 1.96,2663.00
             1.96,2663.00 1.00,2651.00 1.00,2651.00
             1.00,2651.00 1.00,2637.00 1.00,2637.00
             1.00,2637.00 0.00,2621.00 0.00,2621.00
             0.00,2621.00 0.00,2496.00 0.00,2496.00
             0.00,2496.00 1.00,2481.00 1.00,2481.00
             1.00,2481.00 1.00,2467.00 1.00,2467.00
             1.00,2467.00 1.96,2456.00 1.96,2456.00
             1.96,2456.00 1.96,2445.00 1.96,2445.00
             1.96,2445.00 3.00,2430.00 3.00,2430.00
             3.00,2430.00 4.00,2406.00 4.00,2406.00
             4.00,2406.00 4.91,2396.00 4.91,2396.00
             4.91,2396.00 6.09,2374.00 6.09,2374.00
             6.09,2374.00 8.91,2342.00 8.91,2342.00
             13.26,2279.79 22.01,2217.65 31.58,2156.00
             63.65,1949.38 128.40,1730.20 212.86,1539.00
             296.82,1348.94 402.61,1168.68 529.50,1004.00
             688.09,798.17 879.24,614.07 1092.00,464.72
             1188.00,397.33 1288.70,336.21 1393.00,282.58
             1393.00,282.58 1472.00,243.31 1472.00,243.31
             1472.00,243.31 1587.00,192.58 1587.00,192.58
             1648.82,166.64 1712.16,143.21 1776.00,122.74
             1942.67,69.32 2092.52,37.70 2266.00,16.28
             2266.00,16.28 2367.00,6.91 2367.00,6.91
             2367.00,6.91 2430.00,3.00 2430.00,3.00
             2430.00,3.00 2440.00,2.04 2440.00,2.04
             2440.00,2.04 2453.00,2.04 2453.00,2.04
             2453.00,2.04 2468.00,1.00 2468.00,1.00
             2468.00,1.00 2491.00,0.14 2491.00,0.14
             2491.00,0.14 2552.00,0.14 2552.00,0.14 Z
           M 2129.00,1185.00
           C 2129.00,1185.00 2129.00,1114.00 2129.00,1114.00
             2128.97,1093.27 2117.25,1079.76 2096.00,1080.00
             2082.81,1080.16 2076.69,1087.31 2068.00,1096.00
             2068.00,1096.00 2048.00,1116.00 2048.00,1116.00
             2048.00,1116.00 1939.00,1225.00 1939.00,1225.00
             1939.00,1225.00 1500.00,1664.00 1500.00,1664.00
             1500.00,1664.00 1381.00,1783.00 1381.00,1783.00
             1381.00,1783.00 1360.00,1804.00 1360.00,1804.00
             1349.05,1814.95 1341.63,1820.38 1342.01,1837.00
             1342.33,1850.57 1350.07,1857.07 1359.00,1866.00
             1359.00,1866.00 1381.00,1888.00 1381.00,1888.00
             1381.00,1888.00 1496.00,2003.00 1496.00,2003.00
             1496.00,2003.00 1960.00,2467.00 1960.00,2467.00
             1960.00,2467.00 2053.00,2560.00 2053.00,2560.00
             2053.00,2560.00 2068.00,2575.00 2068.00,2575.00
             2076.88,2583.88 2082.54,2590.84 2096.00,2591.00
             2116.31,2591.23 2128.97,2578.18 2129.00,2558.00
             2129.00,2558.00 2129.00,2134.00 2129.00,2134.00
             2129.00,2134.00 3394.00,2134.00 3394.00,2134.00
             3394.00,2134.00 3689.00,2134.00 3689.00,2134.00
             3689.00,2134.00 3730.00,2134.00 3730.00,2134.00
             3738.29,2134.00 3748.05,2134.57 3756.00,2132.22
             3770.85,2127.82 3777.98,2115.87 3778.00,2101.00
             3778.00,2101.00 3778.00,1668.00 3778.00,1668.00
             3778.00,1668.00 3778.00,1570.00 3778.00,1570.00
             3777.96,1547.07 3762.35,1537.03 3741.00,1537.00
             3741.00,1537.00 2129.00,1537.00 2129.00,1537.00
             2129.00,1537.00 2129.00,1185.00 2129.00,1185.00 Z
           M 2991.00,3935.00
           C 2991.00,3935.00 2991.00,4006.00 2991.00,4006.00
             2991.03,4026.73 3002.75,4040.24 3024.00,4040.00
             3037.19,4039.84 3043.31,4032.69 3052.00,4024.00
             3052.00,4024.00 3072.00,4004.00 3072.00,4004.00
             3072.00,4004.00 3181.00,3895.00 3181.00,3895.00
             3181.00,3895.00 3620.00,3456.00 3620.00,3456.00
             3620.00,3456.00 3739.00,3337.00 3739.00,3337.00
             3739.00,3337.00 3760.00,3316.00 3760.00,3316.00
             3770.95,3305.05 3778.37,3299.62 3777.99,3283.00
             3777.67,3269.43 3769.93,3262.93 3761.00,3254.00
             3761.00,3254.00 3739.00,3232.00 3739.00,3232.00
             3739.00,3232.00 3624.00,3117.00 3624.00,3117.00
             3624.00,3117.00 3160.00,2653.00 3160.00,2653.00
             3160.00,2653.00 3067.00,2560.00 3067.00,2560.00
             3067.00,2560.00 3052.00,2545.00 3052.00,2545.00
             3042.94,2535.94 3037.73,2529.16 3024.00,2529.00
             3003.69,2528.77 2991.03,2541.82 2991.00,2562.00
             2991.00,2562.00 2991.00,2986.00 2991.00,2986.00
             2991.00,2986.00 1726.00,2986.00 1726.00,2986.00
             1726.00,2986.00 1431.00,2986.00 1431.00,2986.00
             1431.00,2986.00 1390.00,2986.00 1390.00,2986.00
             1381.71,2986.00 1371.95,2985.43 1364.00,2987.78
             1349.28,2992.14 1342.02,3004.25 1342.00,3019.00
             1342.00,3019.00 1342.00,3452.00 1342.00,3452.00
             1342.00,3452.00 1342.00,3550.00 1342.00,3550.00
             1342.04,3572.93 1357.65,3582.97 1379.00,3583.00
             1379.00,3583.00 2991.00,3583.00 2991.00,3583.00
             2991.00,3583.00 2991.00,3935.00 2991.00,3935.00 Z" />
</svg>
